<?xml version="1.0" encoding="UTF-8"?>
<svg id="open2" xmlns="http://www.w3.org/2000/svg" viewBox="0 0 240 240">
  <defs>
    <style>
      .cls-1 {
        fill: #d3d930;
      }

      .cls-2 {
        fill: #f2c635;
      }
    </style>
  </defs>
  <path class="cls-1" d="M132.37,179.51c-1.84-16.17-18.09-33.01-42.37-33.01-33.57,0-54.41,12.41-61.97,36.9,21.46-1.03,88.12-3.69,104.34-3.89Z"/>
  <path class="cls-1" d="M208.19,178.04c-13.62-28.58-44.91-31.12-62.6-30.04-8.65.53-15.97,3.5-21.77,8.83,6.54,6.39,10.68,14.47,11.54,22.55,17.04.12,39.55-.49,56.1-.93,6.58-.18,12.4-.33,16.73-.41Z"/>
  <path class="cls-2" d="M58.05,148.48c9.06-3.3,19.74-4.98,31.95-4.98s23.04,4,31.6,11.3c6.29-5.85,14.49-9.23,23.81-9.8,9.63-.59,23.12-.12,35.87,4.73,1.44-4.32,2.22-8.93,2.22-13.73,0-6.66-1.5-12.98-4.18-18.62,10.42-7.64,17.18-19.97,17.18-33.88,0-23.2-18.8-42-42-42-6.82,0-13.26,1.64-18.96,4.53-8.53-10.1-21.28-16.53-35.54-16.53-25.68,0-46.5,20.82-46.5,46.5,0,9.78,3.02,18.84,8.18,26.33-5.15,7.43-8.18,16.44-8.18,26.17,0,7.16,1.64,13.94,4.55,19.98Z"/>
</svg>