<?xml version="1.0" encoding="UTF-8"?>
<svg id="open3" xmlns="http://www.w3.org/2000/svg" viewBox="0 0 240 240">
  <defs>
    <style>
      .cls-1 {
        fill: #d3d930;
      }

      .cls-2 {
        fill: #f2c635;
      }
    </style>
  </defs>
  <path class="cls-1" d="M62.9,174.05c26.47,7.33,77.6,6.28,97.14,3.3-37.86-9.95-98.58-26.23-136.49-52.42.71,18.29,8.45,40.57,39.34,49.12Z"/>
  <path class="cls-1" d="M163.15,175.07l4.16,1.09c29.94-5.2,44.2-17.7,45.58-39.98-10.87,9.44-32.28,16.22-56.75,23.96-7.15,2.26-14.5,4.59-22.02,7.11,10.53,2.96,20.29,5.52,29.03,7.82Z"/>
  <path class="cls-2" d="M70.78,146.08c16.6,6.77,35.95,13.32,58.26,19.72,8.99-3.07,17.73-5.84,26.2-8.52,4.43-1.4,8.76-2.77,12.94-4.13,4.65-6.88,7.6-15.01,8.2-23.79,12.07-7.38,20.13-20.68,20.13-35.86,0-23.2-18.8-42-42-42-3.52,0-6.94.44-10.2,1.25-8.69-8.21-20.4-13.25-33.3-13.25-26.79,0-48.5,21.71-48.5,48.5,0,2.84.26,5.62.73,8.33-2.4,5.75-3.73,12.05-3.73,18.67,0,11.83,4.24,22.67,11.28,31.08Z"/>
</svg>