<?xml version="1.0" encoding="UTF-8"?>
<svg id="open4" xmlns="http://www.w3.org/2000/svg" viewBox="0 0 240 240">
  <defs>
    <style>
      .cls-1 {
        fill: #d3d930;
      }

      .cls-2 {
        fill: #f2c635;
      }
    </style>
  </defs>
  <path class="cls-1" d="M45.76,77.69c-6.86,21.63-3.6,54.86,14.57,78.46,10.95,14.23,31.4,29.85,67.2,25.54-23.96-13.93-74.92-70.54-81.77-104Z"/>
  <path class="cls-1" d="M122.26,174.51c4.14,3.1,7.72,5.31,10.46,6.46,30.29-2.64,52.68-13.72,64.76-32.07,10.41-15.81,12.99-36.71,7.53-59.66-1.31,18.22-9.54,34.32-24.96,48.95-16.05,15.22-38.02,26.89-57.79,36.33Z"/>
  <path class="cls-2" d="M119.61,172.46c16.98-8.06,34.32-17.02,48.69-28.07.87-2.68,1.5-5.47,1.85-8.35,9.08-7.7,14.85-19.19,14.85-32.03,0-22.5-17.7-40.87-39.93-41.95-7.53-5.68-16.91-9.05-27.07-9.05-20.13,0-37.17,13.22-42.92,31.45-6.12,7.02-10.1,15.96-10.92,25.8,15.53,23.87,39,49.1,55.44,62.21Z"/>
</svg>