<?xml version="1.0" encoding="UTF-8"?>
<svg id="close" xmlns="http://www.w3.org/2000/svg" viewBox="0 0 240 240">
  <defs>
    <style>
      .cls-1 {
        fill: #d3d930;
      }

      .cls-2 {
        fill: #f2c635;
      }
    </style>
  </defs>
  <path class="cls-1" d="M77.95,75.95c-12.58,11.16-18.95,27.49-18.95,48.55,0,17.65,9.76,33.4,27.5,44.36,20.08,12.41,46.18,15.42,64.96,7.82-26.5-9.59-49.51-26.39-59.25-43.44-2.94-5.15-7.36-19.04-3.03-34.72,3.99-14.42,14.23-26.82,30.46-36.89-.67-.02-1.36-.03-2.05-.03-12.33,0-27.64,3.72-39.62,14.35Z"/>
  <path class="cls-1" d="M190,122.46c.47-19.92-6-37-18.22-48.11-8.47-7.7-18.99-11.82-29.41-11.62,20.56,18.59,17.25,55.14,13.55,66.24-3.51,10.52-14.71,20.16-34.21,29.44,10.12,6.75,21.71,12.42,33.69,16.47,20.81-9.23,34.05-29.26,34.6-52.42Z"/>
  <path class="cls-2" d="M92.06,99.32c-4.22,15.28.55,28.59,2.74,32.43,4.82,8.44,13.13,16.96,24.04,24.69,19.44-9.02,30.95-18.58,34.23-28.42,3.69-11.08,7.05-48.67-15.47-65.32l-2.54-1.87c-2.08-.22-4.19-.33-6.32-.33-.42,0-.83.02-1.25.03l-2.27,1.28c-17.92,10.08-29.08,22.7-33.18,37.52Z"/>
</svg>