<?xml version="1.0" encoding="UTF-8"?>
<svg id="open" xmlns="http://www.w3.org/2000/svg" viewBox="0 0 240 240">
  <defs>
    <style>
      .cls-1 {
        fill: #d3d930;
      }

      .cls-2 {
        fill: #f2c635;
      }
    </style>
  </defs>
  <ellipse class="cls-2" cx="89.5" cy="81.5" rx="52" ry="51"/>
  <ellipse class="cls-2" cx="150.81" cy="75" rx="46.39" ry="45.5"/>
  <path class="cls-1" d="M149.43,151c-10.09-.45-18.92,3.37-24.97,10.81,6.9,6.81,10.77,14.49,11.03,21.87,11.71,2,44.42,8.85,61.5,25.19,1.78-5.63,4.17-21.49-.81-30.47-9.93-17.93-24.35-26.38-46.76-27.39Z"/>
  <path class="cls-1" d="M42.62,168.27c-8.81,11.43-11.87,26.42-8.92,43.53,19.52-31.11,63.79-32.9,98.77-28.5-.39-6.46-3.95-13.29-10.15-19.4-9.93-9.79-24.69-15.92-38.05-15.92-.57,0-1.14.01-1.71.03-12.13.49-28.99,6.06-39.94,20.27Z"/>
  <path class="cls-2" d="M149.57,148c16.87.77,29.44,5.56,39.07,15.16,6.58-7.59,10.57-17.42,10.57-28.17,0-24.02-19.86-43.5-44.35-43.5s-44.35,19.48-44.35,43.5c0,6.99,1.69,13.58,4.67,19.43,2.52,1.6,4.9,3.38,7.11,5.32,6.65-8.08,16.27-12.25,27.29-11.75Z"/>
  <path class="cls-2" d="M133.14,151.19c1.53-4.46,2.36-9.22,2.36-14.19,0-24.58-20.31-44.5-45.37-44.5s-45.37,19.92-45.37,44.5c0,7.22,1.76,14.03,4.87,20.06,10.56-8.18,23.12-11.67,32.81-12.06,13.67-.53,28.98,5.19,39.84,14.75,3.05-3.7,6.72-6.58,10.86-8.57Z"/>
</svg>