<?xml version="1.0" encoding="UTF-8"?>
<svg id="open" xmlns="http://www.w3.org/2000/svg" viewBox="0 0 240 240">
  <defs>
    <style>
      .cls-1, .cls-2 {
        fill: none;
        stroke: #281e00;
        stroke-width: 1.5px;
      }

      .cls-3 {
        fill: #d3d930;
      }

      .cls-4 {
        fill: #f2c635;
      }

      .cls-2 {
        stroke-linejoin: round;
      }
    </style>
  </defs>
  <ellipse class="cls-4" cx="89.5" cy="81.5" rx="52" ry="51"/>
  <ellipse class="cls-4" cx="90.13" cy="137" rx="45.37" ry="44.5"/>
  <ellipse class="cls-4" cx="150.81" cy="75" rx="46.39" ry="45.5"/>
  <ellipse class="cls-4" cx="154.85" cy="135" rx="44.35" ry="43.5"/>
  <path class="cls-3" d="M197.5,211.5c-17.5-18.5-58.5-27.5-81.5-28.5-1-16,11.5-34.5,33.5-33.5s37.43,9.09,48,28.17c6,10.83,2,30.83,0,33.83Z"/>
  <path class="cls-1" d="M122.45,161.93c5.68-7.61,14.92-12.99,27.05-12.43,15.94.72,28.43,5.17,38.12,14.82"/>
  <path class="cls-3" d="M33,216c17-32,59.5-36.5,101-31,.5-19.5-26.5-39.5-51.5-38.5s-60,22-49.5,69.5Z"/>
  <path class="cls-2" d="M134,185c.5-19.5-26.5-39.5-51.5-38.5-10.32.41-22.33,4.23-32.16,11.91"/>
</svg>