<?xml version="1.0" encoding="UTF-8"?>
<svg id="place" xmlns="http://www.w3.org/2000/svg" viewBox="0 0 240 240">
  <defs>
    <style>
      .cls-1 {
        fill: #281e00;
      }
    </style>
  </defs>
  <path class="cls-1" d="M120.44,79.59c-.13,0-.26.02-.39.02,0,.13.02.26.02.39s-.02.26-.02.39c.13,0,.26-.02.39-.02.01,0,.02,0,.04,0-.01-.25-.04-.49-.04-.74,0-.01,0-.02,0-.04Z"/>
  <path class="cls-1" d="M120.11,20.22c-38.6,0-69.89,31.29-69.89,69.89s36.32,103.62,65.73,126.93c2.37,1.88,5.74,1.88,8.11,0,29.42-23.31,65.95-90.04,65.95-126.93S158.71,20.22,120.11,20.22ZM135.22,94.41s-.02,0-.04,0c.01.25.04.49.04.74,0,8.16-6.62,14.78-14.78,14.78s-14.78-6.62-14.78-14.78c0-.13.02-.26.02-.39-.13,0-.26.02-.39.02-8.16,0-14.78-6.62-14.78-14.78s6.43-14.58,14.43-14.76c0-.13-.02-.26-.02-.39,0-8.16,6.62-14.78,14.78-14.78s14.78,6.62,14.78,14.78c0,.01,0,.02,0,.04.25-.01.49-.04.74-.04,8.16,0,14.78,6.62,14.78,14.78s-6.62,14.78-14.78,14.78Z"/>
</svg>