<?xml version="1.0" encoding="UTF-8"?>
<svg id="time" xmlns="http://www.w3.org/2000/svg" viewBox="0 0 240 240">
  <defs>
    <style>
      .cls-1 {
        fill: #281e00;
      }
    </style>
  </defs>
  <path class="cls-1" d="M120,20c-55.23,0-100,44.77-100,100s44.77,100,100,100,100-44.77,100-100S175.23,20,120,20ZM120,200c-44.18,0-80-35.82-80-80S75.82,40,120,40s80,35.82,80,80-35.82,80-80,80Z"/>
  <path class="cls-1" d="M120,48.89c-39.27,0-71.11,31.84-71.11,71.11s31.84,71.11,71.11,71.11,71.11-31.84,71.11-71.11-31.84-71.11-71.11-71.11ZM168.55,143.11c-2.33,5.01-8.28,7.17-13.29,4.84l-39.64-18.48c-4.18-1.95-6.36-6.41-5.62-10.74v-48.72c0-5.52,4.48-10,10-10s10,4.48,10,10v44.1l33.71,15.72c5.01,2.33,7.17,8.28,4.84,13.29Z"/>
</svg>