<?xml version="1.0" encoding="UTF-8"?>
<svg id="_レイヤー_2" data-name="レイヤー_2" xmlns="http://www.w3.org/2000/svg" viewBox="0 0 71.35 66.2">
  <defs>
    <style>
      .cls-1 {
        fill: #d3d930;
      }

      .cls-2 {
        fill: #281e00;
      }
    </style>
  </defs>
  <g id="_レイヤー_3" data-name="レイヤー_3">
    <path class="cls-2" d="M28.94,63.7c-.21,0-.41-.09-.56-.25-.27-.31-.25-.78.06-1.06l4.25-3.76v-15.18c0-.41.34-.75.75-.75s.75.34.75.75v15.86l-4.75,4.21c-.14.13-.32.19-.5.19Z"/>
    <path class="cls-2" d="M35.94,63.7c-.25,0-.49-.12-.64-.35l-2.5-3.98c-.22-.35-.12-.81.24-1.03.35-.22.81-.11,1.03.24l2.5,3.98c.22.35.12.81-.24,1.03-.12.08-.26.11-.4.11Z"/>
    <path class="cls-2" d="M40.44,66.2c-.16,0-.32-.05-.45-.15-.33-.25-.4-.72-.15-1.05l2.85-3.78v-14.77c0-.41.34-.75.75-.75s.75.34.75.75v15.27l-3.15,4.18c-.15.2-.37.3-.6.3Z"/>
    <path class="cls-2" d="M47.44,66.2c-.19,0-.38-.07-.53-.22l-4-3.98c-.29-.29-.29-.77,0-1.06.29-.29.77-.29,1.06,0l4,3.98c.29.29.29.77,0,1.06-.15.15-.34.22-.53.22Z"/>
    <path class="cls-1" d="M1.94,9.95C-11.87.46,52.44-9.55,53.44,17.45c.9,24.17,3.95,23.22,16.5,29.5,8,4-19.5,11.5-45.5,7.5C-1.56,50.45,17.94,20.95,1.94,9.95Z"/>
    <circle class="cls-2" cx="18.94" cy="11.95" r="2.5"/>
  </g>
</svg>