<?xml version="1.0" encoding="UTF-8"?>
<svg id="_レイヤー_2" data-name="レイヤー_2" xmlns="http://www.w3.org/2000/svg" viewBox="0 0 398.81 88.15">
  <defs>
    <style>
      .cls-1 {
        fill: #f2c635;
      }

      .cls-2 {
        fill: #281e00;
      }
    </style>
  </defs>
  <g id="_レイヤー_2-2" data-name="レイヤー_2">
    <path class="cls-2" d="M377.5,72.35c-.32,0-.65-.06-.97-.2-14.66-6.17-34.09-7.45-54.66-8.8-5.29-.35-10.75-.71-16.08-1.16-4.66-.39-7.99-.53-10.94-.65-13.2-.55-15.58-.65-72.18-20.33C155.8,17.94,42.11,20.32,3.34,34.2c-1.3.47-2.73-.21-3.2-1.51-.46-1.3.21-2.73,1.51-3.2,39.42-14.11,154.86-16.59,222.66,6.99,55.9,19.44,58.17,19.54,70.74,20.06,2.84.12,6.38.27,11.15.67,5.29.44,10.73.8,15.99,1.15,21,1.38,40.84,2.69,56.27,9.18,1.27.54,1.87,2,1.33,3.27-.4.96-1.33,1.53-2.31,1.53Z"/>
    <path class="cls-2" d="M228.38,42.86c-.2,0-.39,0-.59,0-1.38-.03-2.47-1.18-2.44-2.56.03-1.38,1.17-2.49,2.56-2.44,8.04.21,18.29-4.67,30.14-10.31,17.82-8.48,39.99-19.02,65.63-17.2,1.38.1,2.41,1.29,2.32,2.67-.1,1.38-1.28,2.42-2.67,2.32-24.32-1.74-45.83,8.5-63.12,16.72-12.16,5.79-22.7,10.8-31.82,10.8Z"/>
    <path class="cls-2" d="M262.71,54.68c-.95,0-1.86-.54-2.28-1.46-.57-1.26-.02-2.74,1.24-3.31,10.87-4.95,30.25-5.36,50.76-5.8,20.53-.44,41.75-.89,54.01-6.05,1.27-.53,2.74.06,3.27,1.33s-.06,2.74-1.33,3.27c-13.14,5.53-34.84,5.99-55.84,6.44-19.11.41-38.87.83-48.8,5.35-.34.15-.69.23-1.04.23Z"/>
    <path class="cls-1" d="M391.33,62.32c1.05-5.07-2.21-10.03-7.28-11.08-5.07-1.05-10.03,2.21-11.08,7.28-5.07-1.05-10.03,2.21-11.08,7.28s2.21,10.03,7.28,11.08c-1.05,5.07,2.21,10.03,7.28,11.08,5.07,1.05,10.03-2.21,11.08-7.28,5.07,1.05,10.03-2.21,11.08-7.28s-2.21-10.03-7.28-11.08Z"/>
    <path class="cls-2" d="M378.78,73.08c-.07,0-.14,0-.2-.02-.54-.11-.89-.64-.78-1.18l1.41-6.81c.11-.54.64-.88,1.18-.78.54.11.89.64.78,1.18l-1.41,6.81c-.1.47-.51.8-.98.8Z"/>
    <path class="cls-2" d="M382.61,73.88c-.23,0-.47-.08-.66-.25-.42-.36-.46-.99-.1-1.41l4.18-4.8c.36-.42.99-.46,1.41-.1.42.36.46.99.1,1.41l-4.18,4.8c-.2.23-.48.34-.75.34Z"/>
    <path class="cls-2" d="M374.63,72.3c-.47,0-.89-.34-.98-.82l-1.11-5.97c-.1-.54.26-1.06.8-1.17.54-.1,1.06.26,1.17.8l1.11,5.97c.1.54-.26,1.06-.8,1.17-.06.01-.12.02-.18.02Z"/>
    <path class="cls-1" d="M274.49,7.9c-.95-5.23-5.97-8.7-11.2-7.74s-8.7,5.97-7.74,11.2c-5.23.95-8.7,5.97-7.74,11.2s5.97,8.7,11.2,7.74c.95,5.23,5.97,8.7,11.2,7.74s8.7-5.97,7.74-11.2c5.23-.95,8.7-5.97,7.74-11.2s-5.97-8.7-11.2-7.74Z"/>
    <path class="cls-2" d="M266.31,23.03c-.47,0-.89-.34-.98-.82l-1.28-7.02c-.1-.54.26-1.06.8-1.16.54-.09,1.06.26,1.16.8l1.28,7.02c.1.54-.26,1.06-.8,1.16-.06.01-.12.02-.18.02Z"/>
    <path class="cls-2" d="M270.26,22.31c-.11,0-.22-.02-.33-.05-.52-.18-.8-.75-.62-1.27l2.12-6.18c.18-.52.75-.8,1.27-.62.52.18.8.75.62,1.27l-2.12,6.18c-.14.42-.53.67-.95.67Z"/>
    <path class="cls-2" d="M262.06,23.89c-.33,0-.65-.16-.84-.46l-3.36-5.26c-.3-.47-.16-1.08.3-1.38.47-.3,1.08-.16,1.38.3l3.36,5.26c.3.47.16,1.08-.3,1.38-.17.11-.35.16-.54.16Z"/>
    <ellipse class="cls-1" cx="371.61" cy="34.57" rx="9.28" ry="7.66" transform="translate(198.36 365.13) rotate(-67.66)"/>
    <path class="cls-2" d="M370.43,36.39c2.18-1.87,6.54-3.96,7.49-8.17,6.76,5.83-4.37,22.88-13.22,12.01,3.29-2.13,3.7-2.1,5.73-3.84Z"/>
    <path class="cls-2" d="M370.58,36.54c-.23-2.86-1.28-7.26,1-10.93-9.06-.24-12.25,20.26.43,18.06-.84-3.83-1.22-4.47-1.43-7.13Z"/>
  </g>
</svg>