<?xml version="1.0" encoding="UTF-8"?>
<svg id="_レイヤー_2" data-name="レイヤー_2" xmlns="http://www.w3.org/2000/svg" viewBox="0 0 499.74 80.42">
  <defs>
    <style>
      .cls-1 {
        fill: #f2c635;
      }

      .cls-2 {
        fill: #281e00;
      }
    </style>
  </defs>
  <g id="_レイヤー_2-2" data-name="レイヤー_2">
    <path class="cls-2" d="M134.11,69.92c-20.37,0-48.93-1.53-74.62-2.92-25.87-1.39-50.31-2.7-56.64-1.8-1.37.2-2.63-.75-2.83-2.12-.19-1.37.75-2.63,2.12-2.83,6.81-.97,30.36.29,57.61,1.76,30.64,1.65,65.36,3.51,85.14,2.72,4.44-.18,9.59-.34,15.24-.52,36.62-1.18,97.9-3.15,121.81-14.25,24.62-11.43,70.46-32.71,143.48-20.2,1.36.23,2.27,1.53,2.04,2.89s-1.52,2.27-2.89,2.04c-71.48-12.25-116.39,8.6-140.52,19.8-24.83,11.53-84.36,13.44-123.75,14.71-5.64.18-10.77.35-15.2.52-3.29.13-6.98.19-10.99.19Z"/>
    <path class="cls-2" d="M417.16,80.42c-14.91,0-30.56-1.83-44.27-5.26-8.24-2.06-16.44-4.65-24.36-7.16-22.79-7.21-46.34-14.65-73.44-10.08-1.36.24-2.65-.69-2.88-2.05-.23-1.36.69-2.65,2.05-2.88,28.28-4.78,52.43,2.86,75.78,10.24,7.85,2.48,15.97,5.05,24.07,7.07,32.97,8.25,78.18,7.33,96.77-8.48,1.05-.89,2.63-.77,3.52.29.89,1.05.77,2.63-.29,3.52-12.16,10.34-31.98,13.57-46.46,14.46-3.43.21-6.94.32-10.49.32Z"/>
    <path class="cls-2" d="M404.97,49.78c-15.03,0-26.93-6.96-33.61-20.07-.63-1.23-.14-2.74,1.09-3.36,1.23-.63,2.74-.14,3.36,1.09,4.34,8.51,15.44,21.9,41.11,15.86,1.34-.31,2.69.52,3.01,1.86.32,1.34-.52,2.69-1.86,3.01-4.58,1.08-8.96,1.61-13.1,1.61Z"/>
    <path class="cls-1" d="M495.17,52.67c3.76-5.04,2.72-12.16-2.32-15.92s-12.16-2.72-15.92,2.32c-5.04-3.76-12.16-2.72-15.92,2.32s-2.72,12.16,2.32,15.92c-3.76,5.04-2.72,12.16,2.32,15.92s12.16,2.72,15.92-2.32c5.04,3.76,12.16,2.72,15.92-2.32,3.76-5.04,2.72-12.16-2.32-15.92Z"/>
    <path class="cls-2" d="M476.35,57.96c-.21,0-.42-.06-.6-.2-.44-.33-.53-.96-.2-1.4l5.04-6.76c.33-.44.96-.53,1.4-.2s.53.96.2,1.4l-5.04,6.76c-.2.26-.5.4-.8.4Z"/>
    <path class="cls-2" d="M480.17,60.8c-.38,0-.75-.22-.92-.59-.22-.5,0-1.1.51-1.32l7.05-3.13c.51-.22,1.1,0,1.32.51.22.5,0,1.1-.51,1.32l-7.05,3.13c-.13.06-.27.09-.41.09Z"/>
    <path class="cls-2" d="M472.2,54.98c-.08,0-.17,0-.25-.03-.53-.14-.86-.68-.72-1.22l1.84-7.14c.14-.54.68-.85,1.22-.72.53.14.86.68.72,1.22l-1.84,7.14c-.12.45-.52.75-.97.75Z"/>
    <path class="cls-1" d="M371.18,8.7c-1.34-6-7.29-9.77-13.28-8.43-6,1.34-9.77,7.29-8.43,13.28-6,1.34-9.77,7.29-8.43,13.28,1.34,6,7.29,9.77,13.28,8.43,1.34,6,7.29,9.77,13.28,8.43,6-1.34,9.77-7.29,8.43-13.28,6-1.34,9.77-7.29,8.43-13.28s-7.29-9.77-13.28-8.43Z"/>
    <path class="cls-2" d="M362.37,26.39c-.46,0-.87-.32-.97-.78l-1.8-8.05c-.12-.54.22-1.07.76-1.19.54-.12,1.07.22,1.19.76l1.8,8.05c.12.54-.22,1.07-.76,1.19-.07.02-.15.02-.22.02Z"/>
    <path class="cls-2" d="M366.91,25.38c-.09,0-.19-.01-.29-.04-.53-.16-.83-.72-.67-1.25l2.17-7.23c.16-.53.72-.83,1.25-.67.53.16.83.72.67,1.25l-2.17,7.23c-.13.43-.53.71-.96.71Z"/>
    <path class="cls-2" d="M357.51,27.58c-.32,0-.63-.15-.82-.43l-4.12-5.92c-.32-.45-.2-1.08.25-1.39.45-.32,1.08-.2,1.39.25l4.12,5.92c.32.45.2,1.08-.25,1.39-.17.12-.37.18-.57.18Z"/>
    <ellipse class="cls-1" cx="428.32" cy="28" rx="8.81" ry="7.28" transform="translate(38.65 208) rotate(-28.53)"/>
    <path class="cls-2" d="M426.35,28.63c2.72-.07,7.19,1,10.42-1.53,1.49,8.35-16.93,14.23-16.94.92,3.7.4,3.99.67,6.52.6Z"/>
    <path class="cls-2" d="M426.38,28.83c1.54-2.25,3.41-6.12,7.28-7.45-6.53-5.6-21.16,7.58-10.5,13.56,1.68-3.33,1.78-4.02,3.22-6.11Z"/>
  </g>
</svg>