<?xml version="1.0" encoding="UTF-8"?>
<svg id="_レイヤー_2" data-name="レイヤー_2" xmlns="http://www.w3.org/2000/svg" viewBox="0 0 403.69 95.72">
  <defs>
    <style>
      .cls-1 {
        fill: #f2c635;
      }

      .cls-2 {
        fill: #281e00;
      }
    </style>
  </defs>
  <g id="_レイヤー_2-2" data-name="レイヤー_2">
    <path class="cls-2" d="M363.13,51.42c-39.49,0-108.21-8.06-141.08-11.92-5.31-.62-9.68-1.14-12.82-1.48-13.09-1.45-54.37-2.01-98.26-.36-52.49,1.97-90.72,6.31-107.64,12.24-1.3.46-2.73-.23-3.19-1.53-.46-1.3.23-2.73,1.53-3.19,23.46-8.21,78.43-11.36,109.11-12.51,44.11-1.65,85.73-1.09,98.99.39,3.15.35,7.53.86,12.85,1.49,40.21,4.72,134.39,15.77,161.4,10.54,1.35-.26,2.67.62,2.93,1.98.26,1.36-.62,2.67-1.98,2.93-5.2,1.01-12.75,1.43-21.85,1.43Z"/>
    <path class="cls-2" d="M214.51,38.61c-1.04,0-2-.65-2.36-1.68-.45-1.3.24-2.73,1.54-3.18,29.35-10.2,105.9-21.8,130.03-19.7,1.38.12,2.39,1.33,2.27,2.71-.12,1.38-1.33,2.4-2.71,2.27-21.88-1.91-96.9,8.65-127.95,19.44-.27.09-.55.14-.82.14Z"/>
    <path class="cls-2" d="M376.06,71.43c-30.45,0-74.58-7.31-94-25.83-1-.95-1.04-2.54-.08-3.53.95-1,2.53-1.04,3.53-.08,20.98,20.01,73.15,26.18,101.8,24.06,1.38-.11,2.58.93,2.68,2.31.1,1.38-.93,2.58-2.31,2.68-3.55.26-7.46.4-11.62.4Z"/>
    <path class="cls-1" d="M394.96,64.87c1.46-6.11-2.3-12.25-8.41-13.71s-12.25,2.3-13.71,8.41c-6.11-1.46-12.25,2.3-13.71,8.41s2.3,12.25,8.41,13.71c-1.46,6.11,2.3,12.25,8.41,13.71s12.25-2.3,13.71-8.41c6.11,1.46,12.25-2.3,13.71-8.41s-2.3-12.25-8.41-13.71Z"/>
    <path class="cls-2" d="M379.37,77.24c-.08,0-.16,0-.23-.03-.54-.13-.87-.67-.74-1.21l1.97-8.2c.13-.54.67-.87,1.21-.74.54.13.87.67.74,1.21l-1.97,8.2c-.11.46-.52.77-.97.77Z"/>
    <path class="cls-2" d="M383.99,78.35c-.24,0-.49-.09-.68-.27-.41-.38-.43-1.01-.05-1.41l5.24-5.66c.38-.41,1.01-.43,1.41-.05.41.38.43,1.01.05,1.41l-5.24,5.66c-.2.21-.47.32-.73.32Z"/>
    <path class="cls-2" d="M374.37,76.14c-.48,0-.91-.35-.99-.85l-1.12-7.29c-.08-.55.29-1.06.84-1.14.54-.08,1.06.29,1.14.84l1.12,7.29c.08.55-.29,1.06-.84,1.14-.05,0-.1.01-.15.01Z"/>
    <path class="cls-1" d="M288.13,35.41c0-4.9-3.97-8.88-8.88-8.88s-8.88,3.97-8.88,8.88c-4.9,0-8.88,3.97-8.88,8.88s3.97,8.88,8.88,8.88c0,4.9,3.97,8.88,8.88,8.88s8.88-3.97,8.88-8.88c4.9,0,8.88-3.97,8.88-8.88s-3.97-8.88-8.88-8.88Z"/>
    <path class="cls-2" d="M278.36,47.87c-.55,0-1-.45-1-1v-6.58c0-.55.45-1,1-1s1,.45,1,1v6.58c0,.55-.45,1-1,1Z"/>
    <path class="cls-2" d="M282.07,47.87c-.17,0-.33-.04-.49-.13-.48-.27-.65-.88-.38-1.36l2.95-5.25c.27-.48.88-.65,1.36-.38.48.27.65.88.38,1.36l-2.95,5.25c-.18.33-.52.51-.87.51Z"/>
    <path class="cls-2" d="M274.37,47.95c-.39,0-.77-.23-.93-.62l-2.18-5.33c-.21-.51.04-1.09.55-1.3.51-.21,1.1.04,1.3.55l2.18,5.33c.21.51-.04,1.09-.55,1.3-.12.05-.25.07-.38.07Z"/>
    <ellipse class="cls-1" cx="342.91" cy="9.97" rx="10.45" ry="8.63" transform="translate(110.53 262.33) rotate(-49.03)"/>
    <path class="cls-2" d="M340.99,11.49c3-1.21,8.41-1.87,10.94-6.02,5.12,8.66-12.9,22.85-18.44,8.06,4.28-1.09,4.71-.91,7.5-2.04Z"/>
    <path class="cls-2" d="M341.1,11.7c.78-3.14,1.24-8.21,5-11.3-9.59-3.51-20.37,17.22-6.04,19.43.48-4.39.31-5.21,1.04-8.13Z"/>
  </g>
</svg>